<svg version="1" xmlns="http://www.w3.org/2000/svg" width="346.667" height="346.667" viewBox="0 0 260.000000 260.000000"><path d="M94.5 2.3c-1.7 1.4-2.8 3.5-3 5.5-.2 3.1-.1 3.2 3.6 3.2 2.7 0 3.9-.4 3.9-1.4 0-1.6 3.2-2.7 4.9-1.7 1 .7 15.4 42.1 14.8 42.7-.2.2-8.3.4-18.1.4-12.7.1-19 .6-22 1.6-2.9 1.1-7.4 4.8-15.8 13.1L51.1 77.4V164c0 47.6.3 88.4.5 90.6.3 2.4 1 4.1 1.7 4 .7 0 4.4.3 8.3.7 4.1.5 8.9.4 11.5-.2 14.2-3.1 100.7-3.1 114.8 0 2.5.5 7.5.7 11.3.3 3.7-.4 7.1-.6 7.4-.4 2.6.8 2.9-7.2 3.1-92.6l.2-89.2-11.4-11.3c-7.9-7.8-12.8-11.9-15.7-13.1-3.4-1.2-8.2-1.6-22.3-1.7-9.8-.1-18-.3-18.2-.5-.1-.1 2.9-9.8 6.8-21.4 7-21.1 7.1-21.2 10-21.2 1.9 0 2.9.5 2.9 1.5 0 1.1 1.1 1.5 4 1.5 4 0 4 0 3.5-3.3-.3-1.7-1.5-4.1-2.6-5.2-1.9-1.9-3.5-2-35.8-2.3L97.2-.1l-2.7 2.4zm52.9 5.8c.3.3-2.7 10-6.5 21.7L133.8 51h-6.5l-7.1-21.1c-3.9-11.7-7-21.4-6.8-21.8.5-.7 33.3-.7 34 0zm30.9 52.3c3.6 1.6 6 3.8 16.3 14.6 6.5 6.9 7.1 7.9 7.3 12.2.1 2.7-.2 4.8-.6 4.8-.4-.1-3.3-.6-6.3-1.3-3-.7-6.5-1.2-7.6-1.1-2 .1-2.2-.4-2.6-7.3-.3-7-.6-7.7-3.6-10.4l-3.3-3-47.9.3-48 .3-2.7 2.8c-2.4 2.3-2.9 3.8-3.3 10l-.5 7.2-3 .1c-2.8.1-7.9 1-11.7 2-1.5.5-1.8-.2-1.8-4.1 0-4.5.4-5.1 7.3-12.3C76.6 64.3 79.1 62 82.5 60.5c4.5-2.1 91.1-2.1 95.8-.1zM66.1 171.9c.3.1 1.3 3 2.4 6.6l1.8 6.5h120.5l1.7-6.5c1-3.6 2.3-6.5 2.9-6.6.6 0 2.1-.2 3.4-.5 2.6-.5 2.3-5.7 2.4 45.9.1 18-.2 33-.6 33.5-1 .9-8.9.8-19.6-.4-10.7-1.1-95.6-1.2-103 0-7.9 1.2-17 1.2-17.8-.1-.5-.8-.8-74.8-.3-78.4.1-.5 3.5-.5 6.2 0z"/><path d="M85.4 191.9c-4 2.4-6.9 9.5-6.1 14.7 1.4 8.3 6.6 11.7 17.7 11.2l6.9-.3-6.1-13.8c-4.2-9.3-6.6-13.7-7.7-13.7-.9 0-3 .9-4.7 1.9zm7.7 14.1c3.7 2 1.5 8.7-2.7 7.8-.9-.2-2.3-1.3-3.1-2.5-1.3-1.9-1.2-2.4.6-4.2 2.4-2.4 2.6-2.4 5.2-1.1zM167.1 193.2c-3.5 7.9-7.4 16.6-9.1 20.3l-1.8 4 6.9.3c8.2.3 13.2-1.6 16-6.2 3.7-6.1 1.5-16.1-4.4-19.6-4.5-2.8-6-2.5-7.6 1.2zm4.8 13.5c1.8 1.6 1.9 2.1.8 4.3-1.4 2.9-4.1 3.7-6.2 2-2-1.7-1.9-5.7.3-6.9 2.3-1.4 2.7-1.4 5.1.6z"/></svg>