<svg version="1" xmlns="http://www.w3.org/2000/svg" width="346.667" height="346.667" viewBox="0 0 260.000000 260.000000"><path d="M96.5.9c-2.9 1.2-4.3 3.2-4.7 6.6-.3 2.8-.1 3 3.5 3.3 2.8.2 3.7 0 3.7-1.2 0-1.1.9-1.6 2.9-1.6 2.9 0 3 .1 9.7 20.2 3.7 11.2 6.9 20.9 7.2 21.5.3 1-3.4 1.3-16.8 1.3-24.3 0-24-.1-38.7 14.3L51.1 77.2l.1 89.5c.1 70.2.4 89.8 1.4 90.7 1.8 1.8 16.1 2.8 20.8 1.5 9.4-2.6 104.8-2.6 114.2 0 4.7 1.3 19 .3 20.8-1.4 1-1 1.3-20.8 1.3-90.8l.2-89.5-12.2-11.9C183 50.9 183.3 51 159 51c-13.4 0-17.1-.3-16.8-1.3.3-.6 3.5-10.3 7.2-21.5C156.1 8.1 156.2 8 159.1 8c2 0 2.9.5 2.9 1.6 0 1.2.9 1.4 3.8 1.2 3.5-.3 3.7-.5 3.4-3.3-.2-1.7-1.2-3.9-2.3-5-1.9-1.9-3.4-2-35.2-2.2-18.2-.1-34.1.2-35.2.6zm51.3 8.3c-.3.7-3.5 10.4-7.2 21.5L133.8 51h-6.6l-6.8-20.3c-3.7-11.1-6.9-20.8-7.2-21.5-.3-.9 3.6-1.2 17.3-1.2 13.7 0 17.6.3 17.3 1.2zm32.3 52.1c2.1 1.2 7.8 6.5 12.8 11.8 8.8 9.4 9.1 9.8 9.1 14.4 0 4.4-.1 4.7-2.2 4.1-1.3-.3-5.1-.9-8.5-1.3l-6.3-.6v-6.1c0-7.1-2.4-12.1-6.6-13.7-1.7-.6-19.9-.9-49.5-.7l-46.9.3-2.7 2.8c-2.4 2.4-2.8 3.6-3.1 10.1l-.4 7.3-6.2.6c-3.3.4-7.1 1-8.3 1.3-2.2.6-2.3.3-2.3-4.1 0-4.6.3-5 9.1-14.4C82.7 57.6 76.6 59 130.5 59c45.9 0 46 0 49.6 2.3zM68.4 178.2l2 6.8h120.2l2-6.8c1.8-6.4 2.1-6.7 5.2-7l3.2-.3v79.9l-3.1.7c-1.7.4-6.9.1-11.7-.6-12.3-1.9-99.1-1.9-111.4 0-4.8.7-10 1-11.7.6l-3.1-.7v-79.9l3.2.3c3.1.3 3.4.6 5.2 7z"/><path d="M85.7 191.8c-3.2 2-6.7 8.6-6.7 12.8 0 4.4 3.2 9.6 7.2 11.6 2.7 1.4 5.3 1.8 10.6 1.6l6.9-.3-6-13.8c-6.4-14.5-6.9-15-12-11.9zm8.3 14.6c2.8 3.5-1.1 9.3-4.7 7-3.6-2.2-2.3-8.4 1.7-8.4 1 0 2.3.7 3 1.4zM162.4 203.7l-6 13.8 6.7.3c11.4.5 16.6-3.1 17.6-12.1.9-7.3-5-15.7-10.9-15.7-.7 0-4 6.2-7.4 13.7zm10 3.5c1.3 1.9 1.4 2.5.2 4.3-2.6 3.9-7.6 2.6-7.6-1.9 0-4.6 4.8-6.2 7.4-2.4z"/></svg>